<svg width="22" height="20" viewBox="0 0 22 20" fill="none" xmlns="http://www.w3.org/2000/svg">
<path d="M14.0957 16.7801C14.7363 16.7801 15.2556 17.2994 15.2556 17.94C15.2556 18.5806 14.7363 19.0999 14.0957 19.0999H3.65631C3.0157 19.0999 2.49638 18.5806 2.49638 17.94C2.49638 17.2994 3.0157 16.7801 3.65631 16.7801H14.0957ZM19.8954 8.66054C20.536 8.66054 21.0553 9.17986 21.0553 9.82047C21.0553 10.4611 20.536 10.9804 19.8954 10.9804H1.33644C0.695832 10.9804 0.176514 10.4611 0.176514 9.82047C0.176514 9.17986 0.695833 8.66054 1.33645 8.66054H19.8954ZM17.5755 0.541016C18.2161 0.541016 18.7354 1.06033 18.7354 1.70095C18.7354 2.34156 18.2161 2.86088 17.5755 2.86088H7.1361C6.49549 2.86088 5.97617 2.34156 5.97617 1.70095C5.97617 1.06033 6.49549 0.541016 7.1361 0.541016H17.5755Z" fill="url(#paint0_linear_639_11717)"/>
<defs>
<linearGradient id="paint0_linear_639_11717" x1="9.62167" y1="26.723" x2="23.0579" y2="-9.44731" gradientUnits="userSpaceOnUse">
<stop stop-color="#E9295C"/>
<stop offset="0.406183" stop-color="#EE711F"/>
<stop offset="0.846913" stop-color="#D4EA63"/>
</linearGradient>
</defs>
</svg>
