<svg width="859" height="835" viewBox="0 0 859 835" fill="none" xmlns="http://www.w3.org/2000/svg">
<path d="M217.026 287.904C309.157 268.442 389.461 288.501 461.858 349.189C498.017 379.501 522.855 416.664 539.274 459.201C557.961 507.626 560.226 558.836 551.251 610.203V610.204C536.271 696.19 489.855 759.915 413.279 800.381C389.094 813.143 362.102 820.504 335.798 829.669C329.758 831.775 325.326 831.745 322.041 829.805C318.828 827.907 316.298 823.944 314.583 817.131L314.42 816.463C310.484 799.868 302.768 783.998 296.819 768.598C322.186 759.762 345.701 753.315 367.448 743.325C414.684 721.7 447.772 685.551 468.314 637.792V637.791C492.645 581.139 490.771 526.057 463.886 469.979H463.885C438.627 417.329 398.905 380.377 345.347 363.321H345.346C253.852 334.207 161.52 362.42 108.252 448.132C101.668 458.725 96.8632 470.384 92.5425 482.239C88.2015 494.15 84.3846 506.149 79.7046 517.717C78.9134 519.656 78.2168 521.723 77.312 523.578C76.8715 524.481 76.4207 525.244 75.9517 525.823C75.4798 526.406 75.0528 526.725 74.6792 526.866L74.6675 526.87C51.399 535.872 27.9022 544.081 3.89014 552.716C3.48709 551.305 3.11906 550.178 2.85303 549.286C2.48142 548.041 2.32499 547.293 2.35303 546.619C5.13804 488.508 23.3993 434.431 58.3296 389.479C98.3793 337.944 150.793 301.893 217.026 287.904Z" stroke="black" stroke-opacity="0.05" stroke-width="3"/>
<path d="M123.411 160.429C214.281 128.121 305.537 119.386 399.8 148.646C464.752 168.807 522.603 200.186 571.38 246.015C615.424 287.384 650.185 336.51 672.853 393.93C705.377 476.391 712.963 559.985 695.982 647.139C684.099 708.073 657.829 761.606 623.386 812.117C620.677 816.067 617.901 819.895 614.667 823.178L614.658 823.187C613.356 824.531 611.841 825.715 609.638 827.318C607.774 828.674 605.427 830.323 602.397 832.575C597.91 819.96 592.642 807.741 588.208 795.938C583.516 783.448 579.679 771.23 578.342 758.794C577.593 751.821 580.598 744.29 584.909 736.292C587.054 732.313 589.464 728.317 591.826 724.257C594.175 720.218 596.464 716.137 598.298 712.081C637.486 625.373 645.642 537.465 614.564 445.549V445.548L614.004 443.904C590.157 374.439 548.904 318.494 491.844 274.964V274.963C445.875 239.925 394.063 215.695 334.566 209.389H334.565C282.862 203.931 231.803 204.292 181.608 217.725C156.811 224.356 133.146 235.999 105.6 246.887C105.528 221.307 104.228 199.404 106.46 177.778V177.775C106.756 174.858 109.06 171.178 112.452 167.786C115.801 164.438 119.928 161.657 123.407 160.43L123.411 160.429Z" stroke="black" stroke-opacity="0.05" stroke-width="3"/>
<path d="M448.668 2.27832C483.624 16.5647 514.038 26.3777 541.96 41.2646C606.577 75.7207 663.834 120.008 712.55 175.443V175.442C771.931 243.033 814.204 319.925 837.146 406.449L837.685 408.495C847.986 447.88 850.879 489.133 856.951 529.893V529.895C858.218 538.316 857.263 543.399 854.391 546.163C851.496 548.949 846.101 549.926 836.97 548.571H836.971C824.385 546.699 815.093 545.348 808.053 543.612C801.024 541.88 796.458 539.81 793.202 536.638C789.951 533.47 787.838 529.038 786.078 522.206C784.314 515.357 782.956 506.312 781.078 494.042C772.002 434.8 754.094 378.694 726.491 324.785C700.969 274.863 667.337 231.864 628.892 192.713L627.057 190.852C586.45 149.802 538.331 115.658 484.995 96.2969H484.994C467.189 89.8414 457.525 82.185 452.549 72.6875C447.544 63.1347 447.116 51.4269 448.491 36.4473V36.4453C449.36 26.8599 448.731 16.9921 448.668 2.27832Z" stroke="black" stroke-opacity="0.05" stroke-width="3"/>
<path d="M201.325 482.574C222.486 461.089 250.617 446.855 278.422 450.325L278.513 450.337H278.605C336.014 450.418 384.695 498.442 383.722 556.587C383.172 589.673 371.937 616.683 353.066 635.615C334.194 654.55 307.575 665.515 276.06 666.312H276.059C219.789 667.762 168.526 616.943 166.736 558.303L166.704 556.916C166.281 532.499 180.158 504.065 201.325 482.574Z" stroke="black" stroke-opacity="0.05" stroke-width="3"/>
</svg>
