<?xml version="1.0" encoding="UTF-8"?>
<!DOCTYPE svg PUBLIC "-//W3C//DTD SVG 1.1//EN" "http://www.w3.org/Graphics/SVG/1.1/DTD/svg11.dtd">
<!-- Creator: CorelDRAW 2021 (64-Bit Evaluation Version) -->
<svg xmlns="http://www.w3.org/2000/svg" xml:space="preserve" width="4.32509in" height="1.4337in" version="1.1" style="shape-rendering:geometricPrecision; text-rendering:geometricPrecision; image-rendering:optimizeQuality; fill-rule:evenodd; clip-rule:evenodd"
viewBox="0 0 4325.09 1433.7"
 xmlns:xlink="http://www.w3.org/1999/xlink"
 xmlns:xodm="http://www.corel.com/coreldraw/odm/2003">
 <defs>
  <style type="text/css">
   <![CDATA[
    .fil0 {fill:black;fill-rule:nonzero}
   ]]>
  </style>
 </defs>
 <g id="Layer_x0020_1">
  <metadata id="CorelCorpID_0Corel-Layer"/>
  <g id="logo-color.svg">
   <path class="fil0" d="M839.91 1024.46c0,30.93 0,57.17 0,83.42 0,68.69 -0.4,137.29 0.4,205.98 0.2,17.5 -5.57,28.33 -21.67,35.89 -32.31,15.11 -63.92,31.71 -99.02,49.31 -1.39,-11.83 -2.88,-18.99 -2.88,-26.15 0,-208.87 -0.5,-417.65 0.2,-626.52 0.4,-127.85 59.05,-228.06 160.46,-299.34 82.11,-57.76 177.66,-71.08 277.77,-52.99 108.96,19.69 190.48,81.32 243.47,172.78 59.85,103.3 68.3,214.54 17.3,328.27 -38.48,85.89 -99.52,148.93 -182.04,187.4 -74.46,34.69 -154.99,39.96 -237.2,21.67 -58.06,-12.93 -106.28,-41.85 -156.58,-79.83l-0.2 0.09zm240.78 -512.19c-137.49,-3.38 -241.78,114.72 -240.19,239.29 1.59,127.25 107.37,237.6 244.66,236.91 139.38,-0.69 241.48,-126.65 239.19,-244.06 -2.09,-107.37 -101.8,-239 -243.67,-232.13z"/>
   <path class="fil0" d="M4098.62 475.48c0,-69.09 0.99,-132.72 -0.5,-196.25 -0.5,-22.17 3.58,-36.09 25.94,-45.33 31.12,-12.93 60.45,-30.02 95.64,-47.92 1,15.51 2.19,25.26 2.19,35 0.1,173.48 -0.5,347.06 0.4,520.54 0.4,80.03 -16.8,155.78 -64.42,219.61 -65.31,87.39 -151.71,143.75 -264.04,152 -88.98,6.56 -173.88,-9.65 -245.26,-64.02 -89.37,-68 -145.15,-157.67 -150.91,-273.59 -4.37,-87.19 13.13,-169.5 66.01,-239.09 62.04,-81.72 142.76,-135.9 248.84,-146.64 91.26,-9.25 175.47,8.25 252.61,57.86 10.24,6.56 18.89,15.51 33.6,27.83l-0.1 0zm-477.99 274.48c-0.4,131.53 106.28,239.89 236.91,240.79 131.93,0.89 241.48,-107.07 240.78,-239.59 -0.69,-130.53 -99.21,-237.6 -236.8,-238.69 -139.78,-1.1 -238.5,105.28 -240.89,237.4l0 0.1z"/>
   <path class="fil0" d="M603.54 422c-43.24,0 -78.34,0.99 -113.24,-0.89 -6.46,-0.4 -16.4,-11.83 -17.8,-19.49 -11.73,-63.92 -72.07,-103.59 -135.3,-87.39 -63.63,16.3 -96.83,79.54 -76.74,142.36 9.74,30.32 29.62,51.89 56.07,64.72 60.25,29.23 123.08,53.09 183.12,82.72 67.5,33.31 133.02,114.53 134.61,192.57 1.29,64.02 -0.3,125.16 -37.18,183.72 -51.7,82.02 -122.08,126.85 -217.02,133.02 -93.75,6.17 -170.3,-30.62 -228.85,-103.09 -39.96,-49.51 -57.26,-107.67 -56.67,-175.37 37.98,0 73.96,-1.19 109.75,1.19 6.07,0.4 15.41,15.81 15.81,24.65 2.08,42.65 24.85,75.96 55.57,98.52 42.05,30.72 92.65,40.76 143.26,18 81.02,-36.39 103.49,-100.11 89.87,-175.87 -4.48,-25.35 -23.96,-55.77 -45.63,-68.7 -53.29,-32.01 -111.05,-57.46 -168.61,-81.52 -124.87,-52.29 -191.48,-146.14 -156.78,-293.77 14.71,-62.33 52.79,-106.57 104.58,-138.19 55.57,-33.9 116.91,-39.76 181.33,-25.25 77.24,17.4 126.76,67.4 159.66,134.41 12.82,26.05 12.93,58.36 20.08,93.75l0.1 -0.1z"/>
   <path class="fil0" d="M1903.67 1096.14c36.29,-12.72 69.39,-21.67 100.21,-35.69 65.21,-29.72 110.94,-79.53 139.28,-145.35 33.6,-78.04 31.02,-153.89 -6.17,-231.14 -34.89,-72.57 -89.77,-123.47 -163.73,-146.94 -126.46,-40.17 -253.91,-1.3 -327.58,116.81 -18.09,29.03 -26.54,64.02 -39.56,96.23 -2.09,5.07 -4.28,12.33 -8.15,13.92 -33.1,12.72 -66.61,24.36 -100.61,36.58 -1.49,-5.96 -2.89,-8.65 -2.78,-11.33 3.88,-81.02 29.43,-156.48 78.34,-219.21 55.97,-71.88 129.34,-122.19 221.99,-141.67 128.84,-27.14 241.18,0.8 342.48,85.5 50.61,42.35 85.4,94.15 108.37,153.49 26.14,67.61 29.33,139.09 16.8,210.67 -20.98,119.99 -85.99,208.97 -193.07,265.44 -33.8,17.8 -71.67,28.13 -108.06,40.76 -17.3,5.96 -27.63,0.59 -32.51,-19.78 -5.67,-23.67 -16.7,-45.93 -25.15,-68.2l-0.1 -0.1z"/>
   <path class="fil0" d="M1638.24 376.26c0,-36.59 -1.99,-68.1 1.19,-99.02 1,-9.54 14.52,-22.17 24.95,-25.85 126.76,-44.93 254.2,-57.16 385.93,-16.4 90.67,28.04 171.49,71.78 239.59,135.6 61.44,57.56 110.05,126.06 141.67,205.99 45.43,114.83 55.97,231.24 32.31,352.53 -16.6,84.9 -53.29,159.46 -101.4,229.75 -3.78,5.46 -7.76,10.94 -12.43,15.61 -3.88,3.98 -8.95,6.96 -19.59,14.91 -12.93,-36.98 -30.72,-70.48 -34.5,-105.58 -2.19,-20.78 17.9,-43.84 27.94,-65.92 54.38,-119.89 65.61,-241.38 22.57,-368.33 -32.91,-97.03 -90.37,-175.07 -170.1,-235.72 -63.72,-48.41 -135.5,-81.92 -217.82,-90.56 -71.78,-7.56 -142.56,-7.06 -212.05,11.53 -35.19,9.44 -68.59,25.94 -108.36,41.55l0.1 -0.1z"/>
   <path class="fil0" d="M2792.07 185.28c42.55,20.88 79.43,37.98 115.12,57.26 5.77,3.08 8.75,15.81 8.95,24.16 0.9,39.87 0.4,79.73 0.4,123.97 26.04,0 49.51,0.7 72.97,-0.2 17,-0.59 24.35,5.67 23.76,23.07 -0.8,25.74 -0.59,51.5 0,77.24 0.4,16.6 -5.47,25.45 -23.16,23.56 -2.79,-0.3 -5.67,0 -8.56,0 -43.27,0.46 -64.92,21.91 -64.92,64.32 0,93.45 1.49,186.9 -0.5,280.25 -1.59,74.66 53.88,133.91 128.84,131.63 23.46,-0.69 32.81,6.26 31.02,30.42 -1.79,24.66 0.79,49.7 -1.39,74.26 -0.59,6.76 -11.43,17.7 -17.89,18 -80.63,3.48 -150.42,-18.89 -204.59,-83.31 -43.15,-51.3 -62.04,-109.65 -62.14,-175.27 -0.2,-102 -1.09,-204 0.6,-306 0.5,-28.44 -9.05,-37.48 -35.99,-34.5 -15.91,1.69 -32.11,0.3 -50.11,0.3l0 -123.78c20.18,0 40.66,-0.99 61.04,0.3 18.89,1.19 25.06,-6.26 24.66,-24.66 -0.9,-47.62 -0.4,-95.34 -0.2,-142.96 0,-10.14 1.09,-20.28 2.09,-37.98l0 -0.1z"/>
   <path class="fil0" d="M2115.69 30.8c49.61,20.38 93.15,34.3 132.92,55.38 90.07,47.92 170,109.56 238,186.7 83.51,94.74 142.76,202.71 174.57,324.3 14.41,54.78 18.39,112.34 26.84,168.7 3.58,23.56 -4.67,32.11 -30.22,28.33 -69.89,-10.34 -69.09,-9.55 -79.54,-77.35 -12.63,-82.02 -37.48,-159.66 -75.75,-234.22 -35.99,-70.19 -83.51,-130.44 -137.99,-185.41 -56.37,-56.77 -123.07,-103.99 -196.94,-130.73 -50.11,-18.09 -55.97,-43.55 -52.09,-85.2 1.29,-13.92 0.2,-28.04 0.2,-50.4l0 -0.1z"/>
   <path class="fil0" d="M1881.1 653.54c81.02,0.1 149.72,67.7 148.33,149.52 -1.59,92.76 -63.23,152.11 -151.91,154.39 -80.13,2.09 -152.9,-70.58 -154.29,-153.89 -1.2,-69.19 78.63,-159.86 157.77,-150.02l0.1 0z"/>
   <path class="fil0" d="M3159 384.53c18.49,-33.2 33.1,-60.44 48.71,-87.19 19.48,-33.3 39.57,-66.31 59.85,-99.11 3.09,-4.97 8.75,-11.83 13.33,-11.93 42.35,-0.89 84.7,-0.5 131.22,-0.5 -11.13,22.37 -19.28,40.86 -29.23,58.26 -23.26,40.96 -47.02,81.62 -71.38,121.89 -4.37,7.35 -12.43,17.39 -19.09,17.59 -42.35,1.59 -84.91,0.8 -133.32,0.8l-0.1 0.2z"/>
  </g>
 </g>
</svg>
