<svg width="416" height="138" viewBox="0 0 416 138" fill="none" xmlns="http://www.w3.org/2000/svg">
<path d="M74.9776 99.9506C74.9776 103.061 74.9776 105.701 74.9776 108.341C74.9776 115.251 74.9376 122.151 75.0176 129.061C75.0376 130.821 74.4576 131.911 72.8376 132.671C69.5876 134.191 66.4076 135.861 62.8776 137.631C62.7376 136.441 62.5876 135.721 62.5876 135.001C62.5876 113.991 62.5376 92.9906 62.6076 71.9806C62.6476 59.1206 68.5476 49.0406 78.7476 41.8706C87.0076 36.0606 96.6176 34.7206 106.688 36.5406C117.648 38.5206 125.848 44.7206 131.178 53.9206C137.198 64.3106 138.048 75.5006 132.918 86.9406C129.048 95.5806 122.908 101.921 114.608 105.791C107.118 109.281 99.0176 109.811 90.7476 107.971C84.9076 106.671 80.0576 103.761 74.9976 99.9406L74.9776 99.9506ZM99.1976 48.4306C85.3676 48.0906 74.8776 59.9706 75.0376 72.5006C75.1976 85.3006 85.8376 96.4006 99.6476 96.3306C113.668 96.2606 123.938 83.5906 123.708 71.7806C123.498 60.9806 113.468 47.7406 99.1976 48.4306Z" fill="url(#paint0_linear_207_11764)"/>
<path d="M402.765 44.7294C402.765 37.7794 402.865 31.3794 402.715 24.9894C402.665 22.7594 403.075 21.3594 405.325 20.4294C408.455 19.1294 411.405 17.4094 414.945 15.6094C415.045 17.1694 415.165 18.1494 415.165 19.1294C415.175 36.5794 415.115 54.0394 415.205 71.4894C415.245 79.5394 413.515 87.1594 408.725 93.5794C402.155 102.369 393.465 108.039 382.165 108.869C373.215 109.529 364.675 107.899 357.495 102.429C348.505 95.5894 342.895 86.5694 342.315 74.9094C341.875 66.1394 343.635 57.8594 348.955 50.8594C355.195 42.6394 363.315 37.1894 373.985 36.1094C383.165 35.1794 391.635 36.9394 399.395 41.9294C400.425 42.5894 401.295 43.4894 402.775 44.7294H402.765ZM354.685 72.3394C354.645 85.5694 365.375 96.4694 378.515 96.5594C391.785 96.6494 402.805 85.7894 402.735 72.4594C402.665 59.3294 392.755 48.5594 378.915 48.4494C364.855 48.3394 354.925 59.0394 354.685 72.3294V72.3394Z" fill="url(#paint1_linear_207_11764)"/>
<path d="M51.2015 39.3503C46.8515 39.3503 43.3215 39.4503 39.8115 39.2603C39.1615 39.2203 38.1615 38.0703 38.0215 37.3003C36.8415 30.8703 30.7715 26.8803 24.4115 28.5103C18.0115 30.1503 14.6715 36.5103 16.6915 42.8303C17.6715 45.8803 19.6715 48.0502 22.3315 49.3402C28.3915 52.2802 34.7115 54.6803 40.7515 57.6603C47.5415 61.0103 54.1315 69.1802 54.2915 77.0302C54.4215 83.4702 54.2615 89.6203 50.5515 95.5103C45.3515 103.76 38.2715 108.27 28.7215 108.89C19.2915 109.51 11.5915 105.81 5.70148 98.5203C1.68148 93.5403 -0.0585022 87.6903 0.0014978 80.8803C3.8215 80.8803 7.44148 80.7603 11.0415 81.0003C11.6515 81.0403 12.5915 82.5903 12.6315 83.4803C12.8415 87.7703 15.1315 91.1203 18.2215 93.3903C22.4515 96.4803 27.5415 97.4903 32.6315 95.2003C40.7815 91.5403 43.0415 85.1303 41.6715 77.5103C41.2215 74.9603 39.2615 71.9003 37.0815 70.6003C31.7215 67.3803 25.9115 64.8202 20.1215 62.4002C7.56149 57.1402 0.861504 47.7003 4.3515 32.8503C5.8315 26.5803 9.66149 22.1303 14.8715 18.9503C20.4615 15.5403 26.6315 14.9503 33.1115 16.4103C40.8815 18.1603 45.8615 23.1903 49.1715 29.9303C50.4615 32.5503 50.4715 35.8003 51.1915 39.3603L51.2015 39.3503Z" fill="url(#paint2_linear_207_11764)"/>
<path d="M181.979 107.161C185.629 105.881 188.959 104.981 192.059 103.571C198.619 100.581 203.219 95.5708 206.069 88.9508C209.449 81.1008 209.189 73.4708 205.449 65.7008C201.939 58.4008 196.419 53.2808 188.979 50.9208C176.259 46.8808 163.439 50.7908 156.029 62.6708C154.209 65.5908 153.359 69.1108 152.049 72.3508C151.839 72.8608 151.619 73.5908 151.229 73.7508C147.899 75.0308 144.529 76.2008 141.109 77.4308C140.959 76.8308 140.819 76.5608 140.829 76.2908C141.219 68.1408 143.789 60.5508 148.709 54.2408C154.339 47.0108 161.719 41.9508 171.039 39.9908C183.999 37.2608 195.299 40.0708 205.489 48.5908C210.579 52.8508 214.079 58.0608 216.389 64.0308C219.019 70.8308 219.339 78.0208 218.079 85.2208C215.969 97.2908 209.429 106.241 198.659 111.921C195.259 113.711 191.449 114.751 187.789 116.021C186.049 116.621 185.009 116.081 184.519 114.031C183.949 111.651 182.839 109.411 181.989 107.171L181.979 107.161Z" fill="url(#paint3_linear_207_11764)"/>
<path d="M155.28 34.7495C155.28 31.0695 155.08 27.8995 155.4 24.7895C155.5 23.8295 156.86 22.5595 157.91 22.1895C170.66 17.6695 183.48 16.4395 196.73 20.5395C205.85 23.3595 213.98 27.7595 220.83 34.1795C227.01 39.9695 231.9 46.8595 235.08 54.8995C239.65 66.4495 240.71 78.1595 238.33 90.3595C236.66 98.8995 232.97 106.4 228.13 113.47C227.75 114.02 227.35 114.57 226.88 115.04C226.49 115.44 225.98 115.74 224.91 116.54C223.61 112.82 221.82 109.45 221.44 105.92C221.22 103.83 223.24 101.51 224.25 99.2895C229.72 87.2295 230.85 75.0095 226.52 62.2395C223.21 52.4795 217.43 44.6295 209.41 38.5295C203 33.6595 195.78 30.2895 187.5 29.4195C180.28 28.6595 173.16 28.7095 166.17 30.5795C162.63 31.5295 159.27 33.1895 155.27 34.7595L155.28 34.7495Z" fill="url(#paint4_linear_207_11764)"/>
<path d="M271.341 15.5391C275.621 17.6391 279.331 19.3591 282.921 21.2991C283.501 21.6091 283.801 22.8891 283.821 23.7291C283.911 27.7391 283.861 31.7491 283.861 36.1991C286.481 36.1991 288.841 36.2691 291.201 36.1791C292.911 36.1191 293.651 36.7491 293.591 38.4991C293.511 41.0891 293.531 43.6791 293.591 46.2691C293.631 47.9391 293.041 48.8291 291.261 48.6391C290.981 48.6091 290.691 48.6391 290.401 48.6391C286.048 48.6858 283.871 50.8424 283.871 55.1091C283.871 64.5091 284.021 73.9091 283.821 83.2991C283.661 90.8091 289.241 96.7691 296.781 96.5391C299.141 96.4691 300.081 97.1691 299.901 99.5991C299.721 102.079 299.981 104.599 299.761 107.069C299.701 107.749 298.611 108.849 297.961 108.879C289.851 109.229 282.831 106.979 277.381 100.499C273.041 95.3391 271.141 89.4691 271.131 82.8691C271.111 72.6091 271.021 62.3491 271.191 52.0891C271.241 49.2291 270.281 48.3191 267.571 48.6191C265.971 48.7891 264.341 48.649 262.531 48.649V36.1991C264.561 36.1991 266.621 36.0991 268.671 36.2291C270.571 36.3491 271.191 35.5991 271.151 33.7491C271.061 28.9591 271.111 24.1591 271.131 19.3691C271.131 18.3491 271.241 17.3291 271.341 15.5491V15.5391Z" fill="url(#paint5_linear_207_11764)"/>
<path d="M203.305 0C208.295 2.05 212.675 3.44998 216.675 5.56998C225.735 10.39 233.775 16.59 240.615 24.35C249.015 33.88 254.975 44.74 258.175 56.97C259.625 62.48 260.025 68.27 260.875 73.94C261.235 76.31 260.405 77.17 257.835 76.79C250.805 75.75 250.885 75.83 249.835 69.01C248.565 60.76 246.065 52.95 242.215 45.45C238.595 38.39 233.815 32.33 228.335 26.8C222.665 21.09 215.955 16.34 208.525 13.65C203.485 11.83 202.895 9.26999 203.285 5.07999C203.415 3.67999 203.305 2.25998 203.305 0.00997925V0Z" fill="url(#paint6_linear_207_11764)"/>
<path d="M179.709 62.6406C187.859 62.6506 194.769 69.4506 194.629 77.6806C194.469 87.0106 188.269 92.9806 179.349 93.2106C171.289 93.4206 163.969 86.1106 163.829 77.7306C163.709 70.7706 171.739 61.6506 179.699 62.6406H179.709Z" fill="url(#paint7_linear_207_11764)"/>
<path d="M308.25 35.5809C310.11 32.2409 311.58 29.5009 313.15 26.8109C315.11 23.4609 317.13 20.1409 319.17 16.8409C319.48 16.3409 320.05 15.6509 320.51 15.6409C324.77 15.5509 329.03 15.5909 333.71 15.5909C332.59 17.8409 331.77 19.7009 330.77 21.4509C328.43 25.5709 326.04 29.6609 323.59 33.7109C323.15 34.4509 322.34 35.4609 321.67 35.4809C317.41 35.6409 313.13 35.5609 308.26 35.5609L308.25 35.5809Z" fill="#EE711F"/>
<defs>
<linearGradient id="paint0_linear_207_11764" x1="62.5576" y1="86.7106" x2="136.278" y2="86.7106" gradientUnits="userSpaceOnUse">
<stop stop-color="#DDBF4B"/>
<stop offset="1" stop-color="#E59F39"/>
</linearGradient>
<linearGradient id="paint1_linear_207_11764" x1="342.245" y1="62.2994" x2="415.205" y2="62.2994" gradientUnits="userSpaceOnUse">
<stop stop-color="#EB4148"/>
<stop offset="1" stop-color="#E92B59"/>
</linearGradient>
<linearGradient id="paint2_linear_207_11764" x1="0.00149778" y1="62.3103" x2="54.3315" y2="62.3103" gradientUnits="userSpaceOnUse">
<stop stop-color="#D6E15E"/>
<stop offset="1" stop-color="#DBC950"/>
</linearGradient>
<linearGradient id="paint3_linear_207_11764" x1="140.829" y1="77.6108" x2="218.789" y2="77.6108" gradientUnits="userSpaceOnUse">
<stop stop-color="#E69432"/>
<stop offset="1" stop-color="#EC602D"/>
</linearGradient>
<linearGradient id="paint4_linear_207_11764" x1="155.22" y1="67.2895" x2="239.57" y2="67.2895" gradientUnits="userSpaceOnUse">
<stop stop-color="#E69432"/>
<stop offset="1" stop-color="#EC602D"/>
</linearGradient>
<linearGradient id="paint5_linear_207_11764" x1="262.521" y1="62.2191" x2="299.921" y2="62.2191" gradientUnits="userSpaceOnUse">
<stop stop-color="#ED622B"/>
<stop offset="1" stop-color="#EC602D"/>
</linearGradient>
<linearGradient id="paint6_linear_207_11764" x1="203.195" y1="38.43" x2="260.955" y2="38.43" gradientUnits="userSpaceOnUse">
<stop stop-color="#E69432"/>
<stop offset="1" stop-color="#EC602D"/>
</linearGradient>
<linearGradient id="paint7_linear_207_11764" x1="163.829" y1="77.8906" x2="194.629" y2="77.8906" gradientUnits="userSpaceOnUse">
<stop stop-color="#E69432"/>
<stop offset="1" stop-color="#EC602D"/>
</linearGradient>
</defs>
</svg>
