<svg width="65" height="65" viewBox="0 0 65 65" fill="none" xmlns="http://www.w3.org/2000/svg">
<path d="M59.5834 26.235C59.5834 17.9637 55.9867 10.5293 50.2721 5.41602M10.8334 44.8548C13.4518 47.7858 16.66 50.1305 20.2478 51.7351C23.8356 53.3398 27.722 54.1682 31.6523 54.166C42.9082 54.166 52.6094 47.5089 57.0294 37.916" stroke="black" stroke-width="2.5" stroke-linecap="round"/>
<path d="M18.9584 12.3297C20.5427 13.8247 23.8063 17.917 24.1882 22.3072C24.543 26.4104 27.1565 29.7443 31.1459 29.7904C32.6788 29.8066 34.2307 28.6583 34.2252 27.0685C34.2252 26.5756 34.144 26.0745 34.0248 25.6114C33.8232 24.9011 33.8827 24.142 34.1927 23.4718C35.4305 20.8231 37.868 20.1108 39.799 18.6727C40.6548 18.0335 41.4348 17.3618 41.7815 16.8202C42.7294 15.3224 43.6827 12.3297 43.2061 10.832M51.4584 29.7904C50.8625 31.4695 50.4427 35.8841 43.7261 35.9545C43.7261 35.9545 37.7813 35.9545 35.9965 39.3156C34.5692 42.0049 35.4007 44.9218 35.9965 46.0404" stroke="black" stroke-width="2.5"/>
<path d="M32.5001 59.5822V54.1655M32.5001 59.5822H27.0834M32.5001 59.5822H37.9167M16.0767 36.5613C13.7779 32.5779 13.0055 27.8947 13.9034 23.3841C14.8013 18.8734 17.3083 14.843 20.9573 12.0436C24.6063 9.24412 29.1485 7.86661 33.7378 8.16763C38.3271 8.46864 42.6504 10.4277 45.9025 13.6797C49.1546 16.9318 51.1136 21.2552 51.4146 25.8445C51.7157 30.4337 50.3381 34.976 47.5387 38.625C44.7393 42.274 40.7088 44.7809 36.1982 45.6788C31.6876 46.5767 27.0043 45.8043 23.0209 43.5055" stroke="black" stroke-width="2.5" stroke-linecap="round"/>
</svg>
