<svg width="65" height="65" viewBox="0 0 65 65" fill="none" xmlns="http://www.w3.org/2000/svg">
<path d="M59.5833 26.235C59.5833 17.9637 55.9866 10.5293 50.272 5.41602M10.8333 44.8548C13.4517 47.7858 16.6599 50.1305 20.2477 51.7351C23.8355 53.3398 27.7219 54.1682 31.6522 54.166C42.908 54.166 52.6093 47.5089 57.0293 37.916" stroke="white" stroke-width="2.5" stroke-linecap="round"/>
<path d="M18.9583 12.3297C20.5426 13.8247 23.8062 17.917 24.188 22.3072C24.5428 26.4104 27.1564 29.7443 31.1458 29.7904C32.6787 29.8066 34.2305 28.6583 34.2251 27.0685C34.2251 26.5756 34.1439 26.0745 34.0247 25.6114C33.823 24.9011 33.8826 24.142 34.1926 23.4718C35.4303 20.8231 37.8678 20.1108 39.7989 18.6727C40.6547 18.0335 41.4347 17.3618 41.7814 16.8202C42.7293 15.3224 43.6826 12.3297 43.206 10.832M51.4583 29.7904C50.8624 31.4695 50.4426 35.8841 43.726 35.9545C43.726 35.9545 37.7812 35.9545 35.9964 39.3156C34.5691 42.0049 35.4005 44.9218 35.9964 46.0404" stroke="white" stroke-width="2.5"/>
<path d="M32.4998 59.5822V54.1655M32.4998 59.5822H27.0832M32.4998 59.5822H37.9165M16.0765 36.5613C13.7777 32.5779 13.0053 27.8947 13.9032 23.3841C14.8011 18.8734 17.308 14.843 20.957 12.0436C24.606 9.24412 29.1483 7.86661 33.7375 8.16763C38.3268 8.46864 42.6502 10.4277 45.9023 13.6797C49.1544 16.9318 51.1134 21.2552 51.4144 25.8445C51.7154 30.4337 50.3379 34.976 47.5385 38.625C44.739 42.274 40.7086 44.7809 36.198 45.6788C31.6873 46.5767 27.0041 45.8043 23.0207 43.5055" stroke="white" stroke-width="2.5" stroke-linecap="round"/>
</svg>
